{"title":"Edge Of Tomorrow 2014 Cam XviD MP3 - Idiocracy","uid":10303700,"size":1074018304,"categoryP":"video","categoryS":"movies","magnet":"?xt=urn:btih:e2f7c90526dd91d837fb08fecdaffd5ffe57f1bc&amp;dn=Edge+Of+Tomorrow+2014+Cam+XviD+MP3+-+Idiocracy&amp;tr=udp%3A%2F%2Ftracker.openbittorrent.com%3A80&amp;tr=udp%3A%2F%2Fopen.demonii.com%3A1337&amp;tr=udp%3A%2F%2Ftracker.coppersurfer.tk%3A6969&amp;tr=udp%3A%2F%2Fexodus.desync.com%3A6969","seeders":2,"leechers":0,"uploader":"Satafakap","files":2,"time":1402007666,"description":"General\n\nComplete name       : Edge.Of.Tomorrow.Cam.XviD.MP3-Idiocracy.avi\nFormat              : AVI\nFormat/Info         : Audio Video Interleave\nFile size           : 1 017 MiB\nDuration            : 1h 45mn\nOverall bit rate    : 1 346 Kbps\nWriting application : VirtualDubMod 1.5.10.3 | www.virtualdub-fr.org || \n                      (build 2550/release)\n\nWriting library     : VirtualDubMod build 2550/release\n\nSource              : Edge.Of.Tomorrow.Senza.Domani.2014.iTALiAN.MD.AC3.TELESYNC.\n                      XviD(TeamPremiumCracking) - Video - Thanks\n\n                      Edge_of_tomorrow_medben_audio_only - Audio - Thanks\n\nSample              : Yes\n\nVideo\n\nID                                  : 0\nFormat                              : MPEG-4 Visual\nFormat profile                      : Advanced Simple@L5\nFormat settings, BVOP               : 2\nFormat settings, QPel               : No\nFormat settings, GMC                : No warppoints\nFormat settings, Matrix             : Default (MPEG)\nMuxing mode                         : Packed bitstream\nCodec ID                            : XVID\nCodec ID/Hint                       : XviD\nDuration                            : 1h 45mn\nBit rate                            : 1 209 Kbps\nWidth                               : 720 pixels\nHeight                              : 300 pixels\nDisplay aspect ratio                : 2.40:1\nOriginal display aspect ratio       : 2.40:1\nFrame rate                          : 25.000 fps\nColor space                         : YUV\nChroma subsampling                  : 4:2:0\nBit depth                           : 8 bits\nScan type                           : Progressive\nCompression mode                    : Lossy\nBits/(Pixel*Frame)                  : 0.224\nStream size                         : 913 MiB (90%)\nWriting library                     : XviD 64\n\nAudio\n\nID                                  : 1\nFormat                              : MPEG Audio\nFormat version                      : Version 1\nFormat profile                      : Layer 3\nCodec ID                            : 55\nCodec ID/Hint                       : MP3\nDuration                            : 1h 45mn\nBit rate mode                       : Constant\nBit rate                            : 128 Kbps\nChannel(s)                          : 2 channels\nSampling rate                       : 44.1 KHz\nCompression mode                    : Lossy\nStream size                         : 96.7 MiB (10%)\nAlignment                           : Split accross interleaves\nInterleave, duration                : 40 ms (1.00 video frame)\nInterleave, preload duration        : 500 ms\nWriting library                     : LAME3.99r\nEncoding settings                   : -m s -V 4 -q 0 -lowpass 17 -b 128","torrent":{"xt":"urn:btih:e2f7c90526dd91d837fb08fecdaffd5ffe57f1bc","amp;dn":"Edge+Of+Tomorrow+2014+Cam+XviD+MP3+-+Idiocracy","amp;tr":["udp%3A%2F%2Ftracker.openbittorrent.com%3A80","udp%3A%2F%2Fopen.demonii.com%3A1337","udp%3A%2F%2Ftracker.coppersurfer.tk%3A6969","udp%3A%2F%2Fexodus.desync.com%3A6969"],"infoHash":"e2f7c90526dd91d837fb08fecdaffd5ffe57f1bc","infoHashBuffer":{"type":"Buffer","data":[226,247,201,5,38,221,145,216,55,251,8,254,205,175,253,95,254,87,241,188]},"announce":[],"urlList":[]}}